<svg width="125" height="57" viewBox="0 0 125 57" fill="none" xmlns="http://www.w3.org/2000/svg">
<path d="M12.8725 0H19.9025V6.96667H12.8725V0ZM13.0625 12.35H19.7125V44.84C19.7125 51.5533 17.2425 57 10.4658 57C7.17249 57 5.08249 55.48 3.56249 54.0233L5.96915 48.5133C6.98249 49.78 7.93249 50.7933 9.64249 50.7933C12.9358 50.7933 13.0625 47.1833 13.0625 42.4967V12.35Z" fill="white"/>
<path d="M52.5429 12.3183V43.7317H45.8929V35.7517C44.4996 41.325 40.5096 44.6817 35.0629 44.6817C28.3496 44.6817 25.2462 39.425 25.2462 31.7617V12.3183H31.8962V29.4817C31.8962 35.7517 33.9229 39.045 38.4829 39.045C42.6629 39.045 45.5762 36.2583 45.8929 31.8883V12.3183H52.5429Z" fill="white"/>
<path d="M57.8867 13.2367H64.5367V21.3433C65.8667 15.7067 69.8567 12.2867 75.3667 12.2867C82.1434 12.2867 85.1834 17.5433 85.1834 25.2067V44.7133H78.5334V27.4867C78.5334 21.28 76.5067 17.9233 71.9467 17.9233C67.64 17.9233 64.7267 20.9 64.5367 25.46V44.7133H57.8867V13.2367Z" fill="white"/>
<path d="M90.5271 28.5633C90.5271 18.6833 96.7971 11.78 106.107 11.78C115.164 11.78 121.37 18.4933 121.37 28.5C121.37 38.5067 115.164 45.22 106.044 45.22C96.9237 45.22 90.5271 38.5067 90.5271 28.5633ZM97.0504 28.5633C97.0504 34.96 100.787 39.0767 105.98 39.0767C111.237 39.0767 114.847 34.96 114.847 28.5C114.847 22.1033 111.364 17.86 106.107 17.86C100.85 17.86 97.0504 22.1033 97.0504 28.5633Z" fill="white"/>
</svg>
