<svg width="22" height="22" viewBox="0 0 22 22" fill="none" xmlns="http://www.w3.org/2000/svg">
<path d="M6.59283 13.8305C5.44268 14.5149 2.4271 15.9129 4.26408 17.663C5.16063 18.5172 6.1596 19.1285 7.41541 19.1285H14.5829C15.8395 19.1285 16.8385 18.5172 17.7351 17.663C19.572 15.9129 16.5565 14.5149 15.4063 13.8305C14.0715 13.0419 12.5495 12.6259 10.9992 12.6259C9.44881 12.6259 7.92766 13.0419 6.59283 13.8305ZM14.6577 6.52967C14.6577 7.49975 14.2723 8.43011 13.5864 9.11606C12.9004 9.80202 11.9701 10.1874 11 10.1874C10.0299 10.1874 9.09953 9.80202 8.41358 9.11606C7.72762 8.43011 7.34226 7.49975 7.34226 6.52967C7.34226 5.55958 7.72762 4.62922 8.41358 3.94327C9.09953 3.25731 10.0299 2.87195 11 2.87195C11.9701 2.87195 12.9004 3.25731 13.5864 3.94327C14.2723 4.62922 14.6577 5.55958 14.6577 6.52967Z" stroke="white" stroke-width="1.8" stroke-linecap="round" stroke-linejoin="round"/>
</svg>
