<svg width="24" height="24" viewBox="0 0 24 24" fill="none" xmlns="http://www.w3.org/2000/svg">
<path d="M12.0001 19.5C5.52228 19.5 2.47783 12.6222 2.3445 12.3333C2.30049 12.2277 2.27783 12.1144 2.27783 12C2.27783 11.8856 2.30049 11.7723 2.3445 11.6667C2.47783 11.3778 5.52228 4.5 12.0001 4.5C18.4778 4.5 21.5223 11.3778 21.6556 11.6667C21.6996 11.7723 21.7223 11.8856 21.7223 12C21.7223 12.1144 21.6996 12.2277 21.6556 12.3333C21.5223 12.6222 18.4778 19.5 12.0001 19.5ZM4.03339 12C4.68894 13.2778 7.36672 17.8333 12.0001 17.8333C16.6334 17.8333 19.3112 13.2778 19.9667 12C19.3112 10.7222 16.6334 6.16667 12.0001 6.16667C7.36672 6.16667 4.68894 10.7222 4.03339 12Z" fill="#D1D1D6"/>
<path d="M12 15.6111C11.2858 15.6111 10.5876 15.3994 9.9938 15.0026C9.39996 14.6058 8.93711 14.0418 8.6638 13.3819C8.39048 12.7221 8.31897 11.996 8.4583 11.2955C8.59764 10.595 8.94157 9.95161 9.44659 9.44659C9.95161 8.94157 10.595 8.59764 11.2955 8.4583C11.996 8.31897 12.7221 8.39048 13.3819 8.6638C14.0418 8.93711 14.6058 9.39996 15.0026 9.9938C15.3994 10.5876 15.6111 11.2858 15.6111 12C15.6082 12.9569 15.2268 13.8737 14.5502 14.5502C13.8737 15.2268 12.9569 15.6082 12 15.6111ZM12 10.0556C11.6155 10.0556 11.2395 10.1696 10.9198 10.3833C10.6 10.5969 10.3508 10.9006 10.2036 11.2559C10.0564 11.6112 10.0179 12.0022 10.0929 12.3794C10.168 12.7566 10.3532 13.103 10.6251 13.375C10.897 13.6469 11.2435 13.8321 11.6207 13.9071C11.9979 13.9821 12.3888 13.9436 12.7441 13.7965C13.0994 13.6493 13.4031 13.4001 13.6168 13.0803C13.8304 12.7605 13.9445 12.3846 13.9445 12C13.9416 11.4852 13.7358 10.9923 13.3717 10.6283C13.0077 10.2643 12.5148 10.0585 12 10.0556Z" fill="#D1D1D6"/>
</svg>
