<svg width="24" height="24" viewBox="0 0 24 24" fill="none" xmlns="http://www.w3.org/2000/svg">
<path d="M20.69 11.7C20.57 11.44 17.83 5.25 12 5.25C11.4417 5.24965 10.8851 5.31001 10.34 5.43C10.1604 5.48558 10.0083 5.60656 9.91365 5.76898C9.81905 5.9314 9.78888 6.12343 9.82912 6.30703C9.86937 6.49064 9.97709 6.65244 10.131 6.7604C10.2848 6.86837 10.4736 6.91462 10.66 6.89C11.1007 6.79775 11.5497 6.75084 12 6.75C16.18 6.75 18.58 10.85 19.17 12C18.8101 12.7027 18.3885 13.3721 17.91 14C17.824 14.1107 17.7708 14.2433 17.7563 14.3827C17.7419 14.5221 17.7668 14.6627 17.8282 14.7887C17.8896 14.9147 17.9851 15.0209 18.1038 15.0954C18.2226 15.1699 18.3598 15.2096 18.5 15.21C18.6139 15.2096 18.7262 15.1833 18.8284 15.1331C18.9307 15.0828 19.0201 15.01 19.09 14.92C19.7199 14.1203 20.2567 13.2513 20.69 12.33C20.7338 12.2308 20.7564 12.1235 20.7564 12.015C20.7564 11.9065 20.7338 11.7992 20.69 11.7ZM6.52996 5.47C6.38778 5.33752 6.19973 5.2654 6.00543 5.26883C5.81113 5.27225 5.62575 5.35097 5.48833 5.48838C5.35092 5.62579 5.27221 5.81118 5.26878 6.00548C5.26535 6.19978 5.33748 6.38783 5.46996 6.53L6.38996 7.45C5.08806 8.64914 4.04063 10.0979 3.30996 11.71C3.27063 11.8034 3.25037 11.9037 3.25037 12.005C3.25037 12.1063 3.27063 12.2066 3.30996 12.3C3.42996 12.56 6.16996 18.75 12 18.75C13.5593 18.7577 15.0863 18.3055 16.39 17.45L17.47 18.53C17.6106 18.6705 17.8012 18.7493 18 18.7493C18.1987 18.7493 18.3893 18.6705 18.53 18.53C18.6704 18.3894 18.7493 18.1988 18.7493 18C18.7493 17.8013 18.6704 17.6106 18.53 17.47L6.52996 5.47ZM10.36 11.47L12.57 13.69C12.2602 13.7927 11.9285 13.8097 11.6099 13.7393C11.2912 13.6689 10.9976 13.5136 10.76 13.29C10.518 13.0514 10.3511 12.7472 10.28 12.4149C10.2089 12.0826 10.2367 11.7367 10.36 11.42V11.47ZM12 17.25C7.80996 17.25 5.41996 13.14 4.82996 12C5.48264 10.6863 6.37065 9.50342 7.44996 8.51L9.23996 10.3C8.85578 10.9209 8.6926 11.6534 8.77687 12.3787C8.86113 13.1039 9.1879 13.7795 9.70419 14.2958C10.2205 14.8121 10.896 15.1388 11.6213 15.2231C12.3466 15.3074 13.079 15.1442 13.7 14.76L15.31 16.37C14.3051 16.954 13.1621 17.2579 12 17.25Z" fill="#D1D1D6"/>
</svg>
